<svg width="593.0562866210937px" height="125.6px" xmlns="http://www.w3.org/2000/svg" viewBox="-46.52814331054685 12.200000000000003 593.0562866210937 125.6" style="background: rgba(9, 116, 192, 0.008);" preserveAspectRatio="xMidYMid"><defs><filter id="editing-hole" x="-100%" y="-100%" width="300%" height="300%"><feFlood flood-color="#231c1c" result="black"></feFlood><feMorphology operator="dilate" radius="2" in="SourceGraphic" result="erode"></feMorphology><feGaussianBlur in="erode" stdDeviation="4" result="blur"></feGaussianBlur><feOffset in="blur" dx="2" dy="2" result="offset"></feOffset><feComposite operator="atop" in="offset" in2="black" result="merge"></feComposite><feComposite operator="in" in="merge" in2="SourceGraphic" result="inner-shadow"></feComposite></filter></defs><g filter="url(#editing-hole)"><g transform="translate(37.73180627822876, 104.05500030517578)"><path d="M17.02 0.51L17.02 0.51Q11.20 0.51 7.65-2.94L7.65-2.94L7.65-2.94Q4.10-6.40 4.10-12.10L4.10-12.10L4.10-32.77L4.10-32.77Q4.10-38.46 7.65-41.89L7.65-41.89L7.65-41.89Q11.20-45.31 17.02-45.31L17.02-45.31L17.02-45.31Q22.91-45.31 26.46-41.92L26.46-41.92L26.46-41.92Q30.02-38.53 30.02-32.90L30.02-32.90L30.02-32.32L30.02-32.32Q30.02-31.68 29.38-31.68L29.38-31.68L26.11-31.55L26.11-31.55Q25.47-31.55 25.47-32.13L25.47-32.13L25.47-33.02L25.47-33.02Q25.47-36.74 23.14-39.04L23.14-39.04L23.14-39.04Q20.80-41.34 17.02-41.34L17.02-41.34L17.02-41.34Q13.25-41.34 10.94-39.07L10.94-39.07L10.94-39.07Q8.64-36.80 8.64-33.02L8.64-33.02L8.64-11.78L8.64-11.78Q8.64-8 10.94-5.73L10.94-5.73L10.94-5.73Q13.25-3.46 17.02-3.46L17.02-3.46L17.02-3.46Q20.80-3.46 23.14-5.76L23.14-5.76L23.14-5.76Q25.47-8.06 25.47-11.78L25.47-11.78L25.47-12.67L25.47-12.67Q25.47-13.25 26.11-13.25L26.11-13.25L29.38-13.06L29.38-13.06Q30.02-13.06 30.02-12.54L30.02-12.54L30.02-11.97L30.02-11.97Q30.02-6.34 26.46-2.91L26.46-2.91L26.46-2.91Q22.91 0.51 17.02 0.51L17.02 0.51ZM55.36-31.74L55.36-31.74Q55.36-32.38 56-32.38L56-32.38L59.26-32.38L59.26-32.38Q59.90-32.38 59.90-31.74L59.90-31.74L59.90-0.64L59.90-0.64Q59.90 0 59.26 0L59.26 0L56 0L56 0Q55.36 0 55.36-0.64L55.36-0.64L55.36-3.14L55.36-3.14Q55.36-3.33 55.26-3.33L55.26-3.33L55.26-3.33Q55.17-3.33 55.04-3.20L55.04-3.20L55.04-3.20Q52.80 0.45 47.62 0.45L47.62 0.45L47.62 0.45Q43.26 0.45 40.51-2.11L40.51-2.11L40.51-2.11Q37.76-4.67 37.76-9.54L37.76-9.54L37.76-31.74L37.76-31.74Q37.76-32.38 38.40-32.38L38.40-32.38L41.66-32.38L41.66-32.38Q42.30-32.38 42.30-31.74L42.30-31.74L42.30-10.69L42.30-10.69Q42.30-7.30 43.97-5.41L43.97-5.41L43.97-5.41Q45.63-3.52 48.64-3.52L48.64-3.52L48.64-3.52Q51.78-3.52 53.57-5.54L53.57-5.54L53.57-5.54Q55.36-7.55 55.36-10.94L55.36-10.94L55.36-31.74ZM78.46 0.32L78.46 0.32Q73.54 0.32 70.53-2.05L70.53-2.05L70.53-2.05Q67.52-4.42 67.52-8.13L67.52-8.13L67.52-8.70L67.52-8.70Q67.52-9.34 68.16-9.34L68.16-9.34L71.23-9.34L71.23-9.34Q71.87-9.34 71.87-8.83L71.87-8.83L71.87-8.26L71.87-8.26Q71.87-6.21 73.73-4.70L73.73-4.70L73.73-4.70Q75.58-3.20 78.46-3.20L78.46-3.20L78.46-3.20Q81.28-3.20 82.98-4.67L82.98-4.67L82.98-4.67Q84.67-6.14 84.67-8.38L84.67-8.38L84.67-8.38Q84.67-9.98 83.71-11.07L83.71-11.07L83.71-11.07Q82.75-12.16 81.34-12.80L81.34-12.80L81.34-12.80Q79.94-13.44 77.44-14.27L77.44-14.27L77.44-14.27Q74.43-15.30 72.45-16.32L72.45-16.32L72.45-16.32Q70.46-17.34 69.09-19.17L69.09-19.17L69.09-19.17Q67.71-20.99 67.71-23.81L67.71-23.81L67.71-23.81Q67.71-27.90 70.62-30.30L70.62-30.30L70.62-30.30Q73.54-32.70 78.27-32.70L78.27-32.70L78.27-32.70Q83.14-32.70 86.05-30.21L86.05-30.21L86.05-30.21Q88.96-27.71 88.96-23.81L88.96-23.81L88.96-23.68L88.96-23.68Q88.96-23.04 88.32-23.04L88.32-23.04L85.31-23.04L85.31-23.04Q84.67-23.04 84.67-23.49L84.67-23.49L84.67-23.94L84.67-23.94Q84.67-26.11 82.91-27.55L82.91-27.55L82.91-27.55Q81.15-28.99 78.27-28.99L78.27-28.99L78.27-28.99Q75.46-28.99 73.79-27.62L73.79-27.62L73.79-27.62Q72.13-26.24 72.13-24.06L72.13-24.06L72.13-24.06Q72.13-21.82 73.82-20.67L73.82-20.67L73.82-20.67Q75.52-19.52 79.17-18.24L79.17-18.24L79.17-18.24Q82.24-17.22 84.29-16.19L84.29-16.19L84.29-16.19Q86.34-15.17 87.78-13.34L87.78-13.34L87.78-13.34Q89.22-11.52 89.22-8.64L89.22-8.64L89.22-8.64Q89.22-4.54 86.30-2.11L86.30-2.11L86.30-2.11Q83.39 0.32 78.46 0.32L78.46 0.32ZM109.25-29.44L109.25-29.44Q109.25-28.80 108.61-28.80L108.61-28.80L102.53-28.80L102.53-28.80Q102.27-28.80 102.27-28.54L102.27-28.54L102.27-9.41L102.27-9.41Q102.27-6.40 103.46-5.22L103.46-5.22L103.46-5.22Q104.64-4.03 107.26-4.03L107.26-4.03L108.35-4.03L108.35-4.03Q108.99-4.03 108.99-3.39L108.99-3.39L108.99-0.70L108.99-0.70Q108.99-0.06 108.35-0.06L108.35-0.06L106.37 0L106.37 0Q102.21 0 100.03-1.70L100.03-1.70L100.03-1.70Q97.86-3.39 97.86-8L97.86-8L97.86-28.54L97.86-28.54Q97.86-28.80 97.60-28.80L97.60-28.80L94.40-28.80L94.40-28.80Q93.76-28.80 93.76-29.44L93.76-29.44L93.76-31.74L93.76-31.74Q93.76-32.38 94.40-32.38L94.40-32.38L97.60-32.38L97.60-32.38Q97.86-32.38 97.86-32.64L97.86-32.64L97.86-39.94L97.86-39.94Q97.86-40.58 98.50-40.58L98.50-40.58L101.63-40.58L101.63-40.58Q102.27-40.58 102.27-39.94L102.27-39.94L102.27-32.64L102.27-32.64Q102.27-32.38 102.53-32.38L102.53-32.38L108.61-32.38L108.61-32.38Q109.25-32.38 109.25-31.74L109.25-31.74L109.25-29.44ZM127.30 0.51L127.30 0.51Q122.69 0.51 119.68-2.02L119.68-2.02L119.68-2.02Q116.67-4.54 116.03-8.83L116.03-8.83L116.03-8.83Q115.58-11.78 115.58-16.26L115.58-16.26L115.58-16.26Q115.58-20.67 116.03-23.55L116.03-23.55L116.03-23.55Q116.61-27.84 119.65-30.37L119.65-30.37L119.65-30.37Q122.69-32.90 127.36-32.90L127.36-32.90L127.36-32.90Q131.90-32.90 134.94-30.37L134.94-30.37L134.94-30.37Q137.98-27.84 138.56-23.62L138.56-23.62L138.56-23.62Q139.01-20.54 139.01-16.26L139.01-16.26L139.01-16.26Q139.01-11.90 138.56-8.83L138.56-8.83L138.56-8.83Q137.92-4.54 134.91-2.02L134.91-2.02L134.91-2.02Q131.90 0.51 127.30 0.51L127.30 0.51ZM127.30-3.46L127.30-3.46Q130.05-3.46 131.94-5.15L131.94-5.15L131.94-5.15Q133.82-6.85 134.21-9.66L134.21-9.66L134.21-9.66Q134.46-12.16 134.46-16.19L134.46-16.19L134.46-16.19Q134.46-20.35 134.21-22.72L134.21-22.72L134.21-22.72Q133.82-25.54 131.94-27.23L131.94-27.23L131.94-27.23Q130.05-28.93 127.30-28.93L127.30-28.93L127.30-28.93Q124.54-28.93 122.66-27.23L122.66-27.23L122.66-27.23Q120.77-25.54 120.38-22.72L120.38-22.72L120.38-22.72Q120.13-20.35 120.13-16.19L120.13-16.19L120.13-16.19Q120.13-12.03 120.38-9.66L120.38-9.66L120.38-9.66Q120.77-6.85 122.66-5.15L122.66-5.15L122.66-5.15Q124.54-3.46 127.30-3.46L127.30-3.46ZM176.51-32.83L176.51-32.83Q180.80-32.83 183.26-29.98L183.26-29.98L183.26-29.98Q185.73-27.14 185.73-22.14L185.73-22.14L185.73-0.64L185.73-0.64Q185.73 0 185.09 0L185.09 0L181.89 0L181.89 0Q181.25 0 181.25-0.64L181.25-0.64L181.25-21.50L181.25-21.50Q181.25-24.90 179.55-26.88L179.55-26.88L179.55-26.88Q177.86-28.86 175.10-28.86L175.10-28.86L175.10-28.86Q172.22-28.86 170.46-26.91L170.46-26.91L170.46-26.91Q168.70-24.96 168.70-21.63L168.70-21.63L168.70-0.64L168.70-0.64Q168.70 0 168.06 0L168.06 0L164.80 0L164.80 0Q164.16 0 164.16-0.64L164.16-0.64L164.16-21.50L164.16-21.50Q164.16-24.90 162.46-26.88L162.46-26.88L162.46-26.88Q160.77-28.86 158.02-28.86L158.02-28.86L158.02-28.86Q155.14-28.86 153.41-26.91L153.41-26.91L153.41-26.91Q151.68-24.96 151.68-21.63L151.68-21.63L151.68-0.64L151.68-0.64Q151.68 0 151.04 0L151.04 0L147.78 0L147.78 0Q147.14 0 147.14-0.64L147.14-0.64L147.14-31.74L147.14-31.74Q147.14-32.38 147.78-32.38L147.78-32.38L151.04-32.38L151.04-32.38Q151.68-32.38 151.68-31.74L151.68-31.74L151.68-29.50L151.68-29.50Q151.68-29.38 151.78-29.34L151.78-29.34L151.78-29.34Q151.87-29.31 152-29.44L152-29.44L152-29.44Q153.28-31.17 155.26-32L155.26-32L155.26-32Q157.25-32.83 159.49-32.83L159.49-32.83L159.49-32.83Q162.30-32.83 164.42-31.55L164.42-31.55L164.42-31.55Q166.53-30.27 167.62-27.97L167.62-27.97L167.62-27.97Q167.74-27.65 167.94-27.97L167.94-27.97L167.94-27.97Q169.22-30.46 171.49-31.65L171.49-31.65L171.49-31.65Q173.76-32.83 176.51-32.83L176.51-32.83ZM205.31-3.46L205.31-3.46Q207.81-3.46 209.60-4.74L209.60-4.74L209.60-4.74Q211.39-6.02 212.16-8.13L212.16-8.13L212.16-8.13Q212.35-8.77 212.93-8.58L212.93-8.58L215.55-7.87L215.55-7.87Q216.19-7.68 216-7.10L216-7.10L216-7.10Q215.04-3.65 212.16-1.57L212.16-1.57L212.16-1.57Q209.28 0.51 205.12 0.51L205.12 0.51L205.12 0.51Q200.64 0.51 197.73-1.89L197.73-1.89L197.73-1.89Q194.82-4.29 194.11-8.38L194.11-8.38L194.11-8.38Q193.54-11.33 193.54-16.26L193.54-16.26L193.54-16.26Q193.54-21.31 193.79-23.42L193.79-23.42L193.79-23.42Q194.30-27.71 197.34-30.30L197.34-30.30L197.34-30.30Q200.38-32.90 204.99-32.90L204.99-32.90L204.99-32.90Q210.05-32.90 212.99-30.08L212.99-30.08L212.99-30.08Q215.94-27.26 216.38-22.53L216.38-22.53L216.38-22.53Q216.64-19.52 216.64-15.23L216.64-15.23L216.64-15.23Q216.64-14.59 216-14.59L216-14.59L198.27-14.59L198.27-14.59Q198.02-14.59 198.02-14.34L198.02-14.34L198.02-14.34Q198.02-11.58 198.21-9.66L198.21-9.66L198.21-9.66Q198.53-6.85 200.48-5.15L200.48-5.15L200.48-5.15Q202.43-3.46 205.31-3.46L205.31-3.46ZM204.99-28.93L204.99-28.93Q202.18-28.93 200.38-27.26L200.38-27.26L200.38-27.26Q198.59-25.60 198.27-22.85L198.27-22.85L198.27-22.85Q198.14-21.50 198.02-18.50L198.02-18.50L198.02-18.50Q198.02-18.24 198.27-18.24L198.27-18.24L211.84-18.24L211.84-18.24Q212.10-18.24 212.10-18.50L212.10-18.50L212.10-18.50Q211.97-21.57 211.84-22.72L211.84-22.72L211.84-22.72Q211.52-25.47 209.66-27.20L209.66-27.20L209.66-27.20Q207.81-28.93 204.99-28.93L204.99-28.93ZM236.48-32.70L236.48-32.70Q238.34-32.70 239.74-31.94L239.74-31.94L239.74-31.94Q240.19-31.74 240.06-31.17L240.06-31.17L239.30-27.90L239.30-27.90Q239.10-27.33 238.46-27.52L238.46-27.52L238.46-27.52Q237.70-27.90 236.42-27.90L236.42-27.90L236.42-27.90Q235.78-27.90 235.46-27.84L235.46-27.84L235.46-27.84Q232.64-27.71 230.82-25.41L230.82-25.41L230.82-25.41Q228.99-23.10 228.99-19.71L228.99-19.71L228.99-0.64L228.99-0.64Q228.99 0 228.35 0L228.35 0L225.09 0L225.09 0Q224.45 0 224.45-0.64L224.45-0.64L224.45-31.74L224.45-31.74Q224.45-32.38 225.09-32.38L225.09-32.38L228.35-32.38L228.35-32.38Q228.99-32.38 228.99-31.74L228.99-31.74L228.99-27.71L228.99-27.71Q228.99-27.52 229.09-27.52L229.09-27.52L229.09-27.52Q229.18-27.52 229.25-27.65L229.25-27.65L229.25-27.65Q230.34-30.02 232.16-31.36L232.16-31.36L232.16-31.36Q233.98-32.70 236.48-32.70L236.48-32.70ZM270.21 0.51L270.21 0.51Q264.32 0.51 260.77-2.66L260.77-2.66L260.77-2.66Q257.22-5.82 257.22-11.14L257.22-11.14L257.22-12.93L257.22-12.93Q257.22-13.57 257.86-13.57L257.86-13.57L260.99-13.57L260.99-13.57Q261.63-13.57 261.63-12.93L261.63-12.93L261.63-11.39L261.63-11.39Q261.63-7.81 264.03-5.63L264.03-5.63L264.03-5.63Q266.43-3.46 270.40-3.46L270.40-3.46L270.40-3.46Q274.18-3.46 276.35-5.50L276.35-5.50L276.35-5.50Q278.53-7.55 278.53-10.88L278.53-10.88L278.53-10.88Q278.53-13.06 277.50-14.66L277.50-14.66L277.50-14.66Q276.48-16.26 274.53-17.60L274.53-17.60L274.53-17.60Q272.58-18.94 268.86-20.99L268.86-20.99L268.86-20.99Q264.90-23.10 262.62-24.70L262.62-24.70L262.62-24.70Q260.35-26.30 258.91-28.61L258.91-28.61L258.91-28.61Q257.47-30.91 257.47-34.24L257.47-34.24L257.47-34.24Q257.47-39.42 260.80-42.37L260.80-42.37L260.80-42.37Q264.13-45.31 269.70-45.31L269.70-45.31L269.70-45.31Q275.65-45.31 279.17-42.05L279.17-42.05L279.17-42.05Q282.69-38.78 282.69-33.41L282.69-33.41L282.69-31.94L282.69-31.94Q282.69-31.30 282.05-31.30L282.05-31.30L278.85-31.30L278.85-31.30Q278.21-31.30 278.21-31.94L278.21-31.94L278.21-33.34L278.21-33.34Q278.21-36.93 275.90-39.14L275.90-39.14L275.90-39.14Q273.60-41.34 269.63-41.34L269.63-41.34L269.63-41.34Q266.05-41.34 264-39.49L264-39.49L264-39.49Q261.95-37.63 261.95-34.24L261.95-34.24L261.95-34.24Q261.95-32.06 262.91-30.59L262.91-30.59L262.91-30.59Q263.87-29.12 265.70-27.90L265.70-27.90L265.70-27.90Q267.52-26.69 271.30-24.64L271.30-24.64L271.30-24.64Q275.65-22.21 277.98-20.51L277.98-20.51L277.98-20.51Q280.32-18.82 281.70-16.61L281.70-16.61L281.70-16.61Q283.07-14.40 283.07-11.20L283.07-11.20L283.07-11.20Q283.07-5.89 279.58-2.69L279.58-2.69L279.58-2.69Q276.10 0.51 270.21 0.51L270.21 0.51ZM307.84-31.74L307.84-31.74Q307.84-32.38 308.48-32.38L308.48-32.38L311.74-32.38L311.74-32.38Q312.38-32.38 312.38-31.74L312.38-31.74L312.38-0.64L312.38-0.64Q312.38 0 311.74 0L311.74 0L308.48 0L308.48 0Q307.84 0 307.84-0.64L307.84-0.64L307.84-3.14L307.84-3.14Q307.84-3.33 307.74-3.33L307.74-3.33L307.74-3.33Q307.65-3.33 307.52-3.20L307.52-3.20L307.52-3.20Q305.28 0.45 300.10 0.45L300.10 0.45L300.10 0.45Q295.74 0.45 292.99-2.11L292.99-2.11L292.99-2.11Q290.24-4.67 290.24-9.54L290.24-9.54L290.24-31.74L290.24-31.74Q290.24-32.38 290.88-32.38L290.88-32.38L294.14-32.38L294.14-32.38Q294.78-32.38 294.78-31.74L294.78-31.74L294.78-10.69L294.78-10.69Q294.78-7.30 296.45-5.41L296.45-5.41L296.45-5.41Q298.11-3.52 301.12-3.52L301.12-3.52L301.12-3.52Q304.26-3.52 306.05-5.54L306.05-5.54L306.05-5.54Q307.84-7.55 307.84-10.94L307.84-10.94L307.84-31.74ZM333.38-32.70L333.38-32.70Q335.23-32.70 336.64-31.94L336.64-31.94L336.64-31.94Q337.09-31.74 336.96-31.17L336.96-31.17L336.19-27.90L336.19-27.90Q336.00-27.33 335.36-27.52L335.36-27.52L335.36-27.52Q334.59-27.90 333.31-27.90L333.31-27.90L333.31-27.90Q332.67-27.90 332.35-27.84L332.35-27.84L332.35-27.84Q329.54-27.71 327.71-25.41L327.71-25.41L327.71-25.41Q325.89-23.10 325.89-19.71L325.89-19.71L325.89-0.64L325.89-0.64Q325.89 0 325.25 0L325.25 0L321.98 0L321.98 0Q321.34 0 321.34-0.64L321.34-0.64L321.34-31.74L321.34-31.74Q321.34-32.38 321.98-32.38L321.98-32.38L325.25-32.38L325.25-32.38Q325.89-32.38 325.89-31.74L325.89-31.74L325.89-27.71L325.89-27.71Q325.89-27.52 325.98-27.52L325.98-27.52L325.98-27.52Q326.08-27.52 326.14-27.65L326.14-27.65L326.14-27.65Q327.23-30.02 329.06-31.36L329.06-31.36L329.06-31.36Q330.88-32.70 333.38-32.70L333.38-32.70ZM349.70 0L349.70 0Q349.18 0 348.99-0.51L348.99-0.51L339.71-31.68L339.65-31.87L339.65-31.87Q339.65-32.38 340.29-32.38L340.29-32.38L343.87-32.38L343.87-32.38Q344.45-32.38 344.58-31.81L344.58-31.81L351.36-6.78L351.36-6.78Q351.42-6.66 351.52-6.66L351.52-6.66L351.52-6.66Q351.62-6.66 351.68-6.78L351.68-6.78L358.46-31.81L358.46-31.81Q358.59-32.38 359.17-32.38L359.17-32.38L362.82-32.32L362.82-32.32Q363.14-32.32 363.30-32.13L363.30-32.13L363.30-32.13Q363.46-31.94 363.39-31.62L363.39-31.62L354.11-0.51L354.11-0.51Q353.92 0 353.41 0L353.41 0L349.70 0ZM380.67-3.46L380.67-3.46Q383.17-3.46 384.96-4.74L384.96-4.74L384.96-4.74Q386.75-6.02 387.52-8.13L387.52-8.13L387.52-8.13Q387.71-8.77 388.29-8.58L388.29-8.58L390.91-7.87L390.91-7.87Q391.55-7.68 391.36-7.10L391.36-7.10L391.36-7.10Q390.40-3.65 387.52-1.57L387.52-1.57L387.52-1.57Q384.64 0.51 380.48 0.51L380.48 0.51L380.48 0.51Q376 0.51 373.09-1.89L373.09-1.89L373.09-1.89Q370.18-4.29 369.47-8.38L369.47-8.38L369.47-8.38Q368.90-11.33 368.90-16.26L368.90-16.26L368.90-16.26Q368.90-21.31 369.15-23.42L369.15-23.42L369.15-23.42Q369.66-27.71 372.70-30.30L372.70-30.30L372.70-30.30Q375.74-32.90 380.35-32.90L380.35-32.90L380.35-32.90Q385.41-32.90 388.35-30.08L388.35-30.08L388.35-30.08Q391.30-27.26 391.74-22.53L391.74-22.53L391.74-22.53Q392-19.52 392-15.23L392-15.23L392-15.23Q392-14.59 391.36-14.59L391.36-14.59L373.63-14.59L373.63-14.59Q373.38-14.59 373.38-14.34L373.38-14.34L373.38-14.34Q373.38-11.58 373.57-9.66L373.57-9.66L373.57-9.66Q373.89-6.85 375.84-5.15L375.84-5.15L375.84-5.15Q377.79-3.46 380.67-3.46L380.67-3.46ZM380.35-28.93L380.35-28.93Q377.54-28.93 375.74-27.26L375.74-27.26L375.74-27.26Q373.95-25.60 373.63-22.85L373.63-22.85L373.63-22.85Q373.50-21.50 373.38-18.50L373.38-18.50L373.38-18.50Q373.38-18.24 373.63-18.24L373.63-18.24L387.20-18.24L387.20-18.24Q387.46-18.24 387.46-18.50L387.46-18.50L387.46-18.50Q387.33-21.57 387.20-22.72L387.20-22.72L387.20-22.72Q386.88-25.47 385.02-27.20L385.02-27.20L385.02-27.20Q383.17-28.93 380.35-28.93L380.35-28.93ZM398.59 12.80L398.59 12.80Q398.14 12.80 398.14 12.16L398.14 12.16L398.14 9.54L398.14 9.54Q398.14 8.90 398.53 8.90L398.53 8.90L398.91 8.90L398.91 8.90Q401.15 8.90 402.40 8.19L402.40 8.19L402.40 8.19Q403.65 7.49 404.48 5.70L404.48 5.70L404.48 5.70Q405.31 3.90 406.27 0.19L406.27 0.19L406.27 0.19Q406.34 0.13 406.30-0.03L406.30-0.03L406.30-0.03Q406.27-0.19 406.27-0.19L406.27-0.19L396.74-31.68L396.67-31.87L396.67-31.87Q396.67-32.38 397.31-32.38L397.31-32.38L400.77-32.38L400.77-32.38Q401.34-32.38 401.47-31.87L401.47-31.87L408.45-6.53L408.45-6.53Q408.51-6.40 408.61-6.40L408.61-6.40L408.61-6.40Q408.70-6.40 408.77-6.53L408.77-6.53L415.68-31.81L415.68-31.81Q415.81-32.38 416.38-32.38L416.38-32.38L419.84-32.38L419.84-32.38Q420.16-32.38 420.32-32.19L420.32-32.19L420.32-32.19Q420.48-32 420.42-31.68L420.42-31.68L409.98 2.82L409.98 2.82Q408.70 7.10 407.46 9.15L407.46 9.15L407.46 9.15Q406.21 11.20 404.32 12L404.32 12L404.32 12Q402.43 12.80 398.98 12.80L398.98 12.80L398.59 12.80Z" fill="#0682d1"></path></g></g><style>text {
  font-size: 64px;
  font-family: Arial Black;
  dominant-baseline: central;
  text-anchor: middle;
}</style></svg>